# xmcd
#
# Track frame offsets: 
#        150
#        32236
#        54778
#        76614
#        107132
#        131594
#        147645
#        170214
#
# Disc length: 2748 seconds
#
# Revision: 0
# Processed by: cddbd v1.5.2PL0 Copyright (c) Steve Scherf et al.
# Submitted via: ExactAudioCopy v0.95b4
#
DISCID=6a0aba08
DTITLE=Atomic Rooster - Death Walks Behind You
DYEAR=1970
DGENRE=Blues
TTITLE0=Death Walks Behind You
TTITLE1=VUG
TTITLE2=Tomorrow Night
TTITLE3=Seven Streets
TTITLE4=Sleeping For Years
TTITLE5=I Can't Take No More
TTITLE6=Nobody Else
TTITLE7=Gershatzer
EXTD=
EXTT0=
EXTT1=
EXTT2=
EXTT3=
EXTT4=
EXTT5=
EXTT6=
EXTT7=
PLAYORDER=
